<?xml version="1.0" encoding="utf-8"?>
<!-- Generator: Adobe Illustrator 24.0.1, SVG Export Plug-In . SVG Version: 6.00 Build 0)  -->
<svg version="1.1" id="Capa_1" xmlns="http://www.w3.org/2000/svg" xmlns:xlink="http://www.w3.org/1999/xlink" x="0px" y="0px"
	 viewBox="0 0 56 50" style="enable-background:new 0 0 56 50;" xml:space="preserve">
<style type="text/css">
	.st0{fill:#CCCCCC;}
</style>
<g>
	<g>
		<path class="st0" d="M25.7,26.6c1-2.3,1.8-4.1,2.4-5.3c0.5-1,1-1.8,1.4-2.4c0.4-0.7,1-1.3,1.6-1.9c0.6-0.6,1.3-1.1,2.2-1.4
			C34.1,15.2,35,15,36,15h8v6c0,0.3,0.1,0.5,0.3,0.7c0.2,0.2,0.4,0.3,0.7,0.3c0.3,0,0.5-0.1,0.7-0.3l10-10c0.2-0.2,0.3-0.4,0.3-0.7
			c0-0.3-0.1-0.5-0.3-0.7l-10-10C45.5,0.1,45.2,0,45,0c-0.3,0-0.5,0.1-0.7,0.3C44.1,0.5,44,0.7,44,1v6h-8c-1.4,0-2.8,0.2-4,0.5
			c-1.3,0.3-2.4,0.8-3.3,1.3c-1,0.5-1.9,1.2-2.8,2.1c-0.9,0.9-1.7,1.8-2.3,2.6c-0.6,0.8-1.3,1.9-2,3.1c-0.7,1.2-1.3,2.3-1.7,3.3
			c-0.4,0.9-0.9,2.1-1.5,3.5c-1,2.3-1.8,4.1-2.4,5.3c-0.5,1-1,1.8-1.4,2.4c-0.4,0.7-1,1.3-1.6,1.9c-0.6,0.6-1.3,1.1-2.2,1.4
			C9.9,34.8,9,35,8,35H1c-0.3,0-0.5,0.1-0.7,0.3C0.1,35.5,0,35.7,0,36v6c0,0.3,0.1,0.5,0.3,0.7C0.5,42.9,0.7,43,1,43h7
			c1.4,0,2.8-0.2,4-0.5c1.2-0.3,2.4-0.8,3.3-1.3c1-0.5,1.9-1.2,2.8-2.1c0.9-0.9,1.7-1.8,2.3-2.6c0.6-0.8,1.3-1.9,2-3.1
			c0.7-1.3,1.3-2.3,1.7-3.3C24.6,29.1,25.1,27.9,25.7,26.6z"/>
		<path class="st0" d="M1,15h7c0.9,0,1.8,0.2,2.5,0.5c0.8,0.3,1.4,0.7,2,1.1c0.5,0.4,1.1,1,1.6,1.8c0.5,0.8,1,1.4,1.3,2
			c0.3,0.6,0.7,1.3,1.2,2.3c1.6-3.8,3-6.6,4.3-8.5C17.5,9.3,13.2,7,8,7H1C0.7,7,0.5,7.1,0.3,7.3C0.1,7.5,0,7.7,0,8v6
			c0,0.3,0.1,0.5,0.3,0.7C0.5,14.9,0.7,15,1,15z"/>
		<path class="st0" d="M45.8,28.3C45.5,28.1,45.3,28,45,28c-0.3,0-0.5,0.1-0.7,0.3C44.1,28.5,44,28.7,44,29v6h-8
			c-0.9,0-1.8-0.2-2.5-0.5c-0.8-0.3-1.4-0.7-2-1.1c-0.5-0.4-1.1-1-1.6-1.8c-0.5-0.7-1-1.4-1.3-2c-0.3-0.6-0.7-1.3-1.2-2.3
			c-1.6,3.7-3,6.6-4.2,8.5c0.6,0.8,1.1,1.5,1.7,2.2c0.6,0.6,1.2,1.2,1.7,1.7c0.5,0.5,1.2,0.9,1.8,1.2c0.7,0.4,1.3,0.7,1.8,0.9
			c0.5,0.2,1.2,0.4,2,0.6c0.8,0.1,1.5,0.3,2,0.3c0.5,0.1,1.3,0.1,2.2,0.2c0.9,0,1.7,0,2.3,0c0.6,0,1.4,0,2.5,0c1.1,0,2,0,2.7,0v6
			c0,0.3,0.1,0.5,0.3,0.7c0.2,0.2,0.4,0.3,0.7,0.3c0.3,0,0.5-0.1,0.7-0.3l10-10c0.2-0.2,0.3-0.4,0.3-0.7c0-0.3-0.1-0.5-0.3-0.7
			L45.8,28.3z"/>
	</g>
</g>
</svg>
