<?xml version="1.0" encoding="utf-8"?>
<!-- Generator: Adobe Illustrator 24.0.1, SVG Export Plug-In . SVG Version: 6.00 Build 0)  -->
<svg version="1.1" id="Capa_1" xmlns="http://www.w3.org/2000/svg" xmlns:xlink="http://www.w3.org/1999/xlink" x="0px" y="0px"
	 viewBox="0 0 50 50" style="enable-background:new 0 0 50 50;" xml:space="preserve">
<style type="text/css">
	.st0{fill:#333333;}
</style>
<g>
	<g>
		<g>
			<path class="st0" d="M42.6,0c-2.4,0-4.4,2-4.4,4.4c0,1,0.3,1.9,0.9,2.6l-7.2,7.8c-0.3-0.1-0.7-0.1-1-0.1c-0.9,0-1.7,0.3-2.4,0.7
				l-5.1-3.8c0.1-0.4,0.2-0.8,0.2-1.3c0-2.4-2-4.4-4.4-4.4s-4.4,2-4.4,4.4c0,0.5,0.1,0.9,0.2,1.3l-5.1,3.8c-0.7-0.5-1.5-0.7-2.4-0.7
				C5,14.6,3,16.6,3,19s2,4.4,4.4,4.4s4.4-2,4.4-4.4c0-0.5-0.1-0.9-0.2-1.3l5.1-3.8c0.7,0.5,1.5,0.7,2.4,0.7s1.7-0.3,2.4-0.7
				l5.1,3.8c-0.1,0.4-0.2,0.8-0.2,1.3c0,2.4,2,4.4,4.4,4.4s4.4-2,4.4-4.4c0-1-0.3-1.9-0.9-2.6l7.2-7.8c0.3,0.1,0.7,0.1,1,0.1
				c2.4,0,4.4-2,4.4-4.4S45,0,42.6,0z"/>
		</g>
	</g>
	<g>
		<g>
			<path class="st0" d="M22.1,23.4h-5.9c-0.8,0-1.5,0.7-1.5,1.5v19.2h8.8V24.9C23.5,24.1,22.9,23.4,22.1,23.4z"/>
		</g>
	</g>
	<g>
		<g>
			<path class="st0" d="M33.8,29.3h-5.9c-0.8,0-1.5,0.7-1.5,1.5v13.4h8.8V30.8C35.3,30,34.6,29.3,33.8,29.3z"/>
		</g>
	</g>
	<g>
		<g>
			<path class="st0" d="M45.5,17.6h-5.9c-0.8,0-1.5,0.7-1.5,1.5v25.1H47V19C47,18.2,46.3,17.6,45.5,17.6z"/>
		</g>
	</g>
	<g>
		<g>
			<path class="st0" d="M10.4,32.2H4.5c-0.8,0-1.5,0.7-1.5,1.5v10.4h8.8V33.7C11.8,32.9,11.2,32.2,10.4,32.2z"/>
		</g>
	</g>
	<g>
		<g>
			<path class="st0" d="M48.5,47.1c-6.5,0-9.5,0-10.7,0c-0.5,0-0.7,0-0.7,0c-2.2,0-10.2,0-35.6,0c-0.8,0-1.5,0.7-1.5,1.5
				C0,49.3,0.7,50,1.5,50c17.7,0,30.5,0,47.1,0c0.8,0,1.5-0.7,1.5-1.5S49.3,47.1,48.5,47.1z"/>
		</g>
	</g>
</g>
</svg>
