<?xml version="1.0" encoding="utf-8"?>
<!-- Generator: Adobe Illustrator 24.0.1, SVG Export Plug-In . SVG Version: 6.00 Build 0)  -->
<svg version="1.1" id="Layer_1" xmlns="http://www.w3.org/2000/svg" xmlns:xlink="http://www.w3.org/1999/xlink" x="0px" y="0px"
	 viewBox="0 0 50 50" style="enable-background:new 0 0 50 50;" xml:space="preserve">
<style type="text/css">
	.st0{fill:#C9D5E1;}
</style>
<g>
	<path class="st0" d="M49.2,43.5c-0.5,0.8-1.4,1.3-2.3,1.5l-28.2,5c-0.2,0-0.4,0.1-0.6,0.1c-0.7,0-1.5-0.2-2.1-0.7
		c-0.8-0.5-1.3-1.4-1.5-2.3L14,44.2h19.4c3.3,0,6-2.7,6-6V12.4l1.7-0.3c1.9-0.3,3.8,1,4.1,2.9l4.6,25.8C50,41.8,49.8,42.7,49.2,43.5
		L49.2,43.5z"/>
	<path class="st0" d="M21.6,4.8h-2.4c0-1.3-1.1-2.4-2.4-2.4s-2.4,1.1-2.4,2.4V6c0,0.7-0.5,1.2-1.2,1.2C12.6,7.2,12,6.6,12,6V4.8
		C12,2.1,14.2,0,16.8,0S21.6,2.1,21.6,4.8z"/>
	<path class="st0" d="M33.5,4.8H21.6v4.8c0,2.6-2.1,4.8-4.8,4.8S12,12.2,12,9.5c0-0.7,0.5-1.2,1.2-1.2s1.2,0.5,1.2,1.2
		c0,1.3,1.1,2.4,2.4,2.4s2.4-1.1,2.4-2.4V4.8H3.7c-2,0-3.6,1.6-3.6,3.6v29.8c0,2,1.6,3.6,3.6,3.6h29.8c2,0,3.6-1.6,3.6-3.6V8.3
		C37.1,6.4,35.5,4.8,33.5,4.8z M9.7,17.9h10.7c0.7,0,1.2,0.5,1.2,1.2s-0.5,1.2-1.2,1.2H9.7c-0.7,0-1.2-0.5-1.2-1.2S9,17.9,9.7,17.9z
		 M27.5,32.2H9.7c-0.7,0-1.2-0.5-1.2-1.2s0.5-1.2,1.2-1.2h17.9c0.7,0,1.2,0.5,1.2,1.2C28.7,31.7,28.2,32.2,27.5,32.2z M27.5,26.2
		H9.7c-0.7,0-1.2-0.5-1.2-1.2s0.5-1.2,1.2-1.2h17.9c0.7,0,1.2,0.5,1.2,1.2S28.2,26.2,27.5,26.2z"/>
</g>
</svg>
