<?xml version="1.0" encoding="utf-8"?>
<!-- Generator: Adobe Illustrator 24.0.1, SVG Export Plug-In . SVG Version: 6.00 Build 0)  -->
<svg version="1.1" id="Layer_1" xmlns="http://www.w3.org/2000/svg" xmlns:xlink="http://www.w3.org/1999/xlink" x="0px" y="0px"
	 viewBox="0 0 50 50" style="enable-background:new 0 0 50 50;" xml:space="preserve">
<style type="text/css">
	.st0{fill-rule:evenodd;clip-rule:evenodd;fill:#C9D5E1;}
</style>
<g transform="translate(-1768 -88)">
	<path class="st0" d="M1774,95.8v8.2c0,0.9,0.6,1.7,1.5,2s1.8-0.1,2.4-0.8c3.3-4.8,8.8-8,15.1-8c10.1,0,18.3,8.2,18.3,18.3
		s-8.2,18.3-18.3,18.3s-18.3-8.2-18.3-18.3c0-1.2-0.9-2.1-2.1-2.1s-2.1,0.9-2.1,2.1c0,12.4,10.1,22.5,22.5,22.5s22.5-10.1,22.5-22.5
		S1805.4,93,1793,93c-5.6,0-10.8,2.1-14.8,5.5v-2.7c0-1.2-0.9-2.1-2.1-2.1S1774,94.6,1774,95.8z M1793,101.4
		c7.8,0,14.1,6.3,14.1,14.1s-6.3,14.1-14.1,14.1s-14.1-6.3-14.1-14.1S1785.2,101.4,1793,101.4z M1790.9,107.8v6.9l-2.8,2.8
		c-0.8,0.8-0.8,2.2,0,3s2.2,0.8,3,0l3.4-3.4c0.4-0.4,0.6-0.9,0.6-1.5v-7.7c0-1.2-0.9-2.1-2.1-2.1S1790.9,106.6,1790.9,107.8z"/>
</g>
</svg>
