<?xml version="1.0" encoding="utf-8"?>
<!-- Generator: Adobe Illustrator 24.0.1, SVG Export Plug-In . SVG Version: 6.00 Build 0)  -->
<svg version="1.1" id="Layer_1" xmlns="http://www.w3.org/2000/svg" xmlns:xlink="http://www.w3.org/1999/xlink" x="0px" y="0px"
	 viewBox="0 0 50 50" style="enable-background:new 0 0 50 50;" xml:space="preserve">
<style type="text/css">
	.st0{fill-rule:evenodd;clip-rule:evenodd;fill:#C8D4E0;}
</style>
<path class="st0" d="M20.5,6.4c2.7-1.8,6.3-1.8,9,0l14.7,10.1c2.2,1.5,3.5,3.9,3.5,6.5v19.1c0,4.4-3.5,7.9-7.9,7.9H10.3
	c-4.4,0-7.9-3.5-7.9-7.9V23c0-2.6,1.3-5.1,3.5-6.5L20.5,6.4z M19.3,39.8c-0.6,0-1.1,0.5-1.1,1.1s0.5,1.1,1.1,1.1h11.3
	c0.6,0,1.1-0.5,1.1-1.1s-0.5-1.1-1.1-1.1H19.3z"/>
</svg>
