<?xml version="1.0" encoding="utf-8"?>
<!-- Generator: Adobe Illustrator 24.0.1, SVG Export Plug-In . SVG Version: 6.00 Build 0)  -->
<svg version="1.1" id="레이어_1" xmlns="http://www.w3.org/2000/svg" xmlns:xlink="http://www.w3.org/1999/xlink" x="0px"
	 y="0px" viewBox="0 0 50 50" style="enable-background:new 0 0 50 50;" xml:space="preserve">
<style type="text/css">
	.st0{fill:#FBC95C;}
	.st1{fill:#F9BD53;}
	.st2{fill:#FBD07E;}
	.st3{fill:#644735;}
	.st4{fill:#2C2C2C;}
</style>
<g>
	<g>
		<g>
			<g>
				<ellipse transform="matrix(0.2298 -0.9732 0.9732 0.2298 -5.075 43.5874)" class="st0" cx="25" cy="25" rx="25" ry="25"/>
			</g>
			<g>
				<path class="st1" d="M38.1,3.7c2.5,3.9,3.9,8.5,3.9,13.5c0,13.8-11.2,25-25,25c-4.8,0-9.3-1.4-13.1-3.7C8.4,45.4,16.2,50,25,50
					c13.8,0,25-11.2,25-25C50,16,45.2,8.1,38.1,3.7z"/>
			</g>
			<g>
				<path class="st2" d="M3.4,27.6c0-12.8,10.4-23.2,23.2-23.2c7.5,0,14.2,3.6,18.4,9.1c-4-7-11.5-11.6-20.1-11.6
					C12.1,1.8,1.7,12.2,1.7,25.1c0,5.3,1.8,10.2,4.8,14.1C4.5,35.8,3.4,31.9,3.4,27.6z"/>
			</g>
		</g>
	</g>
	<path class="st3" d="M30.3,35.1c-1.4-1.2-3.4-1.9-5.3-1.9c-1.9,0-3.8,0.7-5.2,1.9c-0.7,0.6-1.3,1.4-1.8,2.2
		c-0.4,0.9-0.7,1.8-0.7,2.6c0,0.2,0.1,0.4,0.3,0.5c0.2,0.1,0.4,0,0.5-0.2c0.5-0.7,1-1.2,1.5-1.6c0.5-0.4,1.1-0.8,1.7-1.1
		c1.2-0.6,2.4-0.9,3.7-0.9c1.3,0,2.5,0.3,3.6,0.9c1.2,0.6,2.2,1.5,3.2,2.8c0.1,0.1,0.2,0.2,0.4,0.2c0.1,0,0.1,0,0.2,0
		c0.2-0.1,0.3-0.3,0.3-0.5C32.7,38.1,31.8,36.3,30.3,35.1z"/>
	<g>
		<path class="st4" d="M43,29C43,29,43,29,43,29c-0.3-0.1-0.6-0.2-1-0.3c-0.7-0.2-1.3-0.4-1.9-0.6c-0.9-0.3-1.8-0.7-2.5-1.1
			c-0.8-0.4-1.6-0.9-2.3-1.5c-0.8-0.6-1.5-1.3-2.2-2c-0.1-0.1-0.2-0.1-0.3-0.1c-0.1,0-0.1,0.1-0.1,0.2c0.1,1.1,0.5,2.2,1.2,3.2
			c0.7,0.9,1.6,1.7,2.6,2.2c1,0.5,2.1,0.8,3.2,0.9l0.1,0c0.2,0,0.3,0,0.4,0c1,0,2-0.2,2.8-0.6c0.1,0,0.1-0.1,0.1-0.2
			C43.2,29.2,43.1,29.1,43,29z M43,29.2L43,29.2L43,29.2L43,29.2z"/>
		<path class="st4" d="M17.2,23.6c-0.1,0-0.2,0-0.3,0.1c-0.7,0.7-1.4,1.4-2.2,2c-0.7,0.6-1.5,1.1-2.3,1.5c-0.8,0.4-1.6,0.8-2.5,1.1
			c-0.6,0.2-1.3,0.4-1.9,0.6C7.7,28.9,7.3,29,7,29c0,0,0,0,0,0c-0.1,0-0.2,0.1-0.2,0.2c0,0.1,0,0.2,0.1,0.2c0.8,0.4,1.8,0.6,2.8,0.6
			c0.1,0,0.3,0,0.4,0l0.1,0c1.1-0.1,2.2-0.4,3.2-0.9c1-0.5,1.9-1.3,2.6-2.2c0.7-1,1.2-2.1,1.2-3.2C17.4,23.7,17.3,23.6,17.2,23.6z"
			/>
	</g>
</g>
</svg>
