<?xml version="1.0" encoding="utf-8"?>
<!-- Generator: Adobe Illustrator 24.0.1, SVG Export Plug-In . SVG Version: 6.00 Build 0)  -->
<svg version="1.1" id="레이어_1" xmlns="http://www.w3.org/2000/svg" xmlns:xlink="http://www.w3.org/1999/xlink" x="0px"
	 y="0px" viewBox="0 0 50 50" style="enable-background:new 0 0 50 50;" xml:space="preserve">
<style type="text/css">
	.st0{fill:#FBC95C;}
	.st1{fill:#F9BD53;}
	.st2{fill:#FBD07E;}
	.st3{fill:#644735;}
	.st4{fill:#2C2C2C;}
</style>
<g>
	<g>
		<g>
			<g>
				<circle class="st0" cx="25" cy="25" r="25"/>
			</g>
			<g>
				<path class="st1" d="M38.1,3.7c2.5,3.9,3.9,8.5,3.9,13.5c0,13.8-11.2,25-25,25c-4.8,0-9.3-1.4-13.1-3.7C8.4,45.4,16.2,50,25,50
					c13.8,0,25-11.2,25-25C50,16,45.2,8.1,38.1,3.7z"/>
			</g>
			<g>
				<path class="st2" d="M3.4,27.6c0-12.8,10.4-23.2,23.2-23.2c7.5,0,14.2,3.6,18.4,9.1c-4-7-11.5-11.6-20.1-11.6
					C12.1,1.8,1.7,12.2,1.7,25.1c0,5.3,1.8,10.2,4.8,14.1C4.5,35.8,3.4,31.9,3.4,27.6z"/>
			</g>
		</g>
		<path class="st3" d="M14.8,28.8c-0.6-0.6-1.7,0.1-1.3,0.9c1.8,4.6,6.4,7.9,11.6,7.9c5.2,0,9.6-3.2,11.5-7.6
			c0.3-0.8-0.7-1.5-1.3-0.9C31.6,32.5,23.8,37.6,14.8,28.8z"/>
	</g>
	<g>
		<g>
			<g>
				<path class="st4" d="M17.6,20.5c0,1.7-0.8,3.1-1.8,3.1s-1.8-1.4-1.8-3.1c0-1.7,0.8-3.1,1.8-3.1S17.6,18.8,17.6,20.5z"/>
			</g>
			<g>
				<path class="st4" d="M36.1,20.5c0,1.7-0.8,3.1-1.8,3.1s-1.8-1.4-1.8-3.1c0-1.7,0.8-3.1,1.8-3.1S36.1,18.8,36.1,20.5z"/>
			</g>
		</g>
	</g>
</g>
</svg>
