<?xml version="1.0" encoding="utf-8"?>
<!-- Generator: Adobe Illustrator 24.0.1, SVG Export Plug-In . SVG Version: 6.00 Build 0)  -->
<svg version="1.1" id="Capa_1" xmlns="http://www.w3.org/2000/svg" xmlns:xlink="http://www.w3.org/1999/xlink" x="0px" y="0px"
	 viewBox="0 0 48.3 50" style="enable-background:new 0 0 48.3 50;" xml:space="preserve">
<style type="text/css">
	.st0{fill:#333333;}
</style>
<path class="st0" d="M47.5,45.5L35.6,33.2c3.1-3.6,4.7-8.2,4.7-13C40.4,9.1,31.3,0,20.2,0S0,9.1,0,20.2s9.1,20.2,20.2,20.2
	c4.2,0,8.2-1.3,11.6-3.7l12,12.5c0.5,0.5,1.2,0.8,1.9,0.8c0.7,0,1.3-0.3,1.8-0.7C48.5,48.3,48.5,46.6,47.5,45.5z M20.2,5.3
	c8.2,0,14.9,6.7,14.9,14.9s-6.7,14.9-14.9,14.9S5.3,28.4,5.3,20.2S12,5.3,20.2,5.3z"/>
</svg>
