<?xml version="1.0" encoding="utf-8"?>
<!-- Generator: Adobe Illustrator 24.0.1, SVG Export Plug-In . SVG Version: 6.00 Build 0)  -->
<svg version="1.1" id="Capa_1" xmlns="http://www.w3.org/2000/svg" xmlns:xlink="http://www.w3.org/1999/xlink" x="0px" y="0px"
	 viewBox="0 0 47.5 50" style="enable-background:new 0 0 47.5 50;" xml:space="preserve">
<style type="text/css">
	.st0{fill-rule:evenodd;clip-rule:evenodd;fill:#CCCCCC;}
</style>
<g>
	<g id="Icon_00000093895562345236468680000002635522421730978688_">
		<path class="st0" d="M29.9,1.6c0,0,1.7,5.1,1.7,5.1c1.4,0.6,2.8,1.4,4.1,2.4l5.2-1c0.6-0.1,1.2,0.1,1.6,0.6
			c2.1,2.4,3.8,5.3,4.8,8.3c0.2,0.6,0.1,1.2-0.3,1.7c0,0-3.5,4-3.5,4c0.2,1.6,0.2,3.1,0,4.7l3.5,4c0.4,0.5,0.5,1.1,0.3,1.7
			c-1,3.1-2.7,5.9-4.8,8.3c-0.4,0.5-1,0.7-1.6,0.6c0,0-5.2-1-5.2-1c-1.3,0.9-2.6,1.7-4.1,2.4l-1.7,5.1c-0.2,0.6-0.7,1-1.3,1.1
			c-3.2,0.6-6.4,0.6-9.6,0c-0.6-0.1-1.1-0.6-1.3-1.1c0,0-1.7-5.1-1.7-5.1c-1.4-0.6-2.8-1.4-4.1-2.4l-5.2,1c-0.6,0.1-1.2-0.1-1.6-0.6
			c-2.1-2.4-3.8-5.3-4.8-8.3c-0.2-0.6-0.1-1.2,0.3-1.7c0,0,3.5-4,3.5-4c-0.2-1.6-0.2-3.1,0-4.7l-3.5-4c-0.4-0.5-0.5-1.1-0.3-1.7
			c1-3.1,2.7-5.9,4.8-8.3c0.4-0.5,1-0.7,1.6-0.6c0,0,5.2,1,5.2,1c1.3-0.9,2.6-1.7,4.1-2.4l1.7-5.1c0.2-0.6,0.7-1,1.3-1.1
			c3.2-0.6,6.4-0.6,9.6,0C29.2,0.6,29.7,1,29.9,1.6L29.9,1.6z M23.7,14.7c-5.7,0-10.3,4.6-10.3,10.3s4.6,10.3,10.3,10.3
			S34,30.7,34,25S29.4,14.7,23.7,14.7L23.7,14.7z M23.7,18.2c3.7,0,6.8,3,6.8,6.8s-3,6.8-6.8,6.8S17,28.7,17,25S20,18.2,23.7,18.2z"
			/>
	</g>
</g>
</svg>
