<?xml version="1.0" encoding="utf-8"?>
<!-- Generator: Adobe Illustrator 24.0.1, SVG Export Plug-In . SVG Version: 6.00 Build 0)  -->
<svg version="1.1" id="svg8" xmlns:svg="http://www.w3.org/2000/svg"
	 xmlns="http://www.w3.org/2000/svg" xmlns:xlink="http://www.w3.org/1999/xlink" x="0px" y="0px" viewBox="0 0 43.4 50"
	 style="enable-background:new 0 0 43.4 50;" xml:space="preserve">
<style type="text/css">
	.st0{fill:#FFFFFF;}
</style>
<g id="layer1" transform="translate(0 -288.533)">
	<path id="path823" vector-effect="none" class="st0" d="M35,288.5c-1.3,0-2.5,0.5-3.5,1.5l-3.8,3.8l10.4,10.4l3.8-3.8
		c1.9-1.9,1.9-5.1,0-7.1c0,0-3.3-3.3-3.3-3.3C37.6,289,36.3,288.5,35,288.5z M25.3,296.2L1.5,320c-0.9,0.9-1.5,2.2-1.5,3.5v6.7
		c0,0.9,0.7,1.7,1.7,1.7l6.7,0c1.3,0,2.6-0.5,3.5-1.5l23.8-23.8L25.3,296.2z M1.5,335.2C1.5,335.2,1.5,335.2,1.5,335.2
		c-2.2,0.2-2,3.4,0.2,3.3h40c2.3,0.1,2.3-3.4,0-3.3h-40C1.7,335.2,1.6,335.2,1.5,335.2z"/>
</g>
</svg>
