<?xml version="1.0" encoding="utf-8"?>
<!-- Generator: Adobe Illustrator 24.0.1, SVG Export Plug-In . SVG Version: 6.00 Build 0)  -->
<svg version="1.1" id="레이어_1" xmlns="http://www.w3.org/2000/svg" xmlns:xlink="http://www.w3.org/1999/xlink" x="0px"
	 y="0px" viewBox="0 0 25.5 28" style="enable-background:new 0 0 25.5 28;" xml:space="preserve">
<style type="text/css">
	.st0{fill:#747496;}
</style>
<g id="Layer_2">
	<path class="st0" d="M22.7,22.6c-0.3,0.8-1,1.4-1.9,1.4h-16c-1.1,0-2-0.9-2-2c0-0.6,0.3-1.2,0.8-1.6l0.2-0.2
		C4,20,4.2,19.7,4.2,19.4v-7.8c0-3.6,2.2-6.8,5.6-8.1V3c0-1.7,1.3-3,3-3s3,1.3,3,3v0.6c3.4,1.3,5.6,4.5,5.6,8.1v7.8
		c0,0.3,0.1,0.6,0.4,0.8l0.3,0.2C22.7,20.9,23,21.8,22.7,22.6z M12.8,28c1.4,0,2.7-0.8,3.4-2H9.3C10,27.2,11.3,28,12.8,28z M3.9,4
		C3.4,3.7,2.8,3.8,2.5,4.2L0.2,7.5C-0.1,8,0,8.6,0.4,8.9c0,0,0,0,0,0C0.6,9.1,0.8,9.1,1,9.1c0.3,0,0.6-0.2,0.8-0.4l2.3-3.3
		C4.5,5,4.4,4.4,3.9,4C3.9,4,3.9,4,3.9,4z M25.3,7.4l-2.4-3.2c-0.3-0.4-1-0.5-1.4-0.2c-0.4,0.3-0.5,1-0.2,1.4l0,0l2.3,3.2
		C23.8,8.9,24.2,9,24.5,9c0.2,0,0.4-0.1,0.6-0.2C25.5,8.5,25.6,7.9,25.3,7.4C25.3,7.4,25.3,7.4,25.3,7.4L25.3,7.4z"/>
</g>
</svg>
