<?xml version="1.0" encoding="utf-8"?>
<!-- Generator: Adobe Illustrator 24.0.1, SVG Export Plug-In . SVG Version: 6.00 Build 0)  -->
<svg version="1.1" id="레이어_1" xmlns="http://www.w3.org/2000/svg" xmlns:xlink="http://www.w3.org/1999/xlink" x="0px"
	 y="0px" viewBox="0 0 50 50" style="enable-background:new 0 0 50 50;" xml:space="preserve">
<style type="text/css">
	.st0{fill-rule:evenodd;clip-rule:evenodd;fill:#CCCCCC;}
</style>
<g transform="translate(-432 -192)">
	<g transform="matrix(1 0 0 1.412 0 -91)">
		<path class="st0" d="M473.1,203h3.6c1.4,0,2.8,0.4,3.8,1.1c1,0.7,1.6,1.7,1.6,2.7v5.1h-50v-5.1c0-1,0.6-2,1.6-2.7
			c1-0.7,2.4-1.1,3.8-1.1h3.6v3.8c0,0.7,0.8,1.3,1.8,1.3s1.8-0.6,1.8-1.3V203h25v3.8c0,0.7,0.8,1.3,1.8,1.3s1.8-0.6,1.8-1.3V203z
			 M440.9,203v-1.3c0-0.7,0.8-1.3,1.8-1.3s1.8,0.6,1.8,1.3v1.3H440.9z M469.5,203v-1.3c0-0.7,0.8-1.3,1.8-1.3s1.8,0.6,1.8,1.3v1.3
			H469.5z M482,214.3V232c0,1-0.6,2-1.6,2.7c-1,0.7-2.4,1.1-3.8,1.1h-39.3c-1.4,0-2.8-0.4-3.8-1.1c-1-0.7-1.6-1.7-1.6-2.7v-17.7H482
			z"/>
	</g>
</g>
</svg>
