<?xml version="1.0" encoding="utf-8"?>
<!-- Generator: Adobe Illustrator 24.0.1, SVG Export Plug-In . SVG Version: 6.00 Build 0)  -->
<svg version="1.1" id="레이어_1" xmlns="http://www.w3.org/2000/svg" xmlns:xlink="http://www.w3.org/1999/xlink" x="0px"
	 y="0px" viewBox="0 0 50 50" style="enable-background:new 0 0 50 50;" xml:space="preserve">
<style type="text/css">
	.st0{fill:#CCCCCC;}
</style>
<g>
	<path class="st0" d="M33.1,28.4c0,4.4-3.6,8.1-8.1,8.1s-8.1-3.6-8.1-8.1s3.6-8.1,8.1-8.1S33.1,23.9,33.1,28.4z M50,16.9v22.9
		c0,3.1-2.5,5.5-5.5,5.5H5.5c-3.1,0-5.5-2.5-5.5-5.5V16.9c0-3.1,2.5-5.5,5.5-5.5h6.8V9.5c0-2.7,2.2-4.8,4.8-4.8h15.7
		c2.7,0,4.8,2.2,4.8,4.8v1.9h6.8C47.5,11.4,50,13.9,50,16.9z M37.2,28.4c0-6.7-5.5-12.2-12.2-12.2c-6.7,0-12.2,5.5-12.2,12.2
		S18.3,40.6,25,40.6C31.7,40.6,37.2,35.1,37.2,28.4z"/>
</g>
</svg>
