<?xml version="1.0" encoding="utf-8"?>
<!-- Generator: Adobe Illustrator 24.0.1, SVG Export Plug-In . SVG Version: 6.00 Build 0)  -->
<svg version="1.1" id="Capa_1" xmlns="http://www.w3.org/2000/svg" xmlns:xlink="http://www.w3.org/1999/xlink" x="0px" y="0px"
	 viewBox="0 0 62.5 50" style="enable-background:new 0 0 62.5 50;" xml:space="preserve">
<style type="text/css">
	.st0{fill:#118DD8;}
</style>
<g>
	<g>
		<path class="st0" d="M55,8.7h-6.5l-3.6-5.4c-1.4-2-3.7-3.3-6.2-3.3H23.8c-2.4,0-4.8,1.2-6.2,3.3L14,8.7H7.5C3.3,8.7,0,12,0,16.2
			v26.4C0,46.7,3.3,50,7.5,50H55c4.1,0,7.5-3.3,7.5-7.5V16.2C62.5,12,59.2,8.7,55,8.7z M31.2,43.9c-9.3,0-16.8-7.5-16.8-16.8
			s7.5-16.8,16.8-16.8s16.8,7.5,16.8,16.8C48.1,36.3,40.6,43.9,31.2,43.9z M54.1,19.2c-0.1,0-0.1,0-0.3,0h-2.7
			c-1.2-0.1-2.2-1.1-2.1-2.3c0.1-1.2,1-2,2.1-2.1h2.7c1.2-0.1,2.2,0.9,2.3,2.1C56.2,18.1,55.3,19.2,54.1,19.2z"/>
	</g>
</g>
<g>
	<g>
		<path class="st0" d="M31.2,17.7c-5.2,0-9.4,4.2-9.4,9.4s4.2,9.3,9.4,9.3s9.4-4.2,9.4-9.4C40.6,21.9,36.4,17.7,31.2,17.7z"/>
	</g>
</g>
</svg>
