<?xml version="1.0" encoding="utf-8"?>
<!-- Generator: Adobe Illustrator 24.0.1, SVG Export Plug-In . SVG Version: 6.00 Build 0)  -->
<svg version="1.1" id="Layer_1" xmlns="http://www.w3.org/2000/svg" xmlns:xlink="http://www.w3.org/1999/xlink" x="0px" y="0px"
	 viewBox="0 0 43.7 50" style="enable-background:new 0 0 43.7 50;" xml:space="preserve">
<style type="text/css">
	.st0{fill:#CCCCCC;}
</style>
<g id="Layer_2_00000060023533762576666680000013708961081672033712_">
	<g id="trash_xmark">
		<path class="st0" d="M3.2,12.1c0,0.4,1.3,22.7,2,33.2c0.2,2.9,2.1,4.7,5.1,4.7h23c3.4,0,5.1-1.7,5.4-5.1c0.5-9,1.9-31,2-32.8
			L3.2,12.1z M29.7,34.3c1.3,1.3,1.3,3.3,0,4.6c-1.3,1.3-3.3,1.3-4.6,0l-3.3-3.3l-3.3,3.3c-1.3,1.3-3.3,1.3-4.6,0
			c-1.3-1.3-1.3-3.3,0-4.6l3.3-3.3l-3.3-3.3c-1.3-1.3-1.3-3.3,0-4.6c1.3-1.3,3.3-1.3,4.6,0l3.3,3.3l3.3-3.3c1.3-1.3,3.3-1.3,4.6,0
			c1.3,1.3,1.3,3.3,0,4.6l-3.3,3.3L29.7,34.3z"/>
		<path class="st0" d="M40.5,3.2c-2.6,0-5.3,0-7.9,0C32.5,1.4,30.9,0,29.1,0H14.6c-1.8,0-3.4,1.4-3.5,3.2c-2.7,0-5.4,0-8.2,0
			C1.5,3.2,0.5,4,0.1,5.3c-0.6,2.2,0.7,4,3,4c6.3,0,12.5,0,18.8,0h18.6c2,0,3.2-1.1,3.2-3C43.7,4.4,42.6,3.2,40.5,3.2z"/>
	</g>
</g>
</svg>
