<?xml version="1.0" encoding="utf-8"?>
<!-- Generator: Adobe Illustrator 24.0.1, SVG Export Plug-In . SVG Version: 6.00 Build 0)  -->
<svg version="1.1" id="레이어_1" xmlns="http://www.w3.org/2000/svg" xmlns:xlink="http://www.w3.org/1999/xlink" x="0px"
	 y="0px" viewBox="0 0 50 50" style="enable-background:new 0 0 50 50;" xml:space="preserve">
<style type="text/css">
	.st0{fill-rule:evenodd;clip-rule:evenodd;fill:#01D3D5;}
</style>
<path class="st0" d="M0,25C0,11.2,11.2,0,25,0s25,11.2,25,25S38.8,50,25,50S0,38.8,0,25z M23.2,13.2c1-1,2.6-1,3.5,0l10,10
	c1,1,1,2.6,0,3.5s-2.6,1-3.5,0L27.5,21v14c0,1.4-1.1,2.5-2.5,2.5s-2.5-1.1-2.5-2.5V21l-5.7,5.7c-1,1-2.6,1-3.5,0c-1-1-1-2.6,0-3.5
	L23.2,13.2z"/>
</svg>
