<?xml version="1.0" encoding="utf-8"?>
<!-- Generator: Adobe Illustrator 24.0.1, SVG Export Plug-In . SVG Version: 6.00 Build 0)  -->
<svg version="1.1" id="Layer_1" xmlns="http://www.w3.org/2000/svg" xmlns:xlink="http://www.w3.org/1999/xlink" x="0px" y="0px"
	 viewBox="0 0 50 50" style="enable-background:new 0 0 50 50;" xml:space="preserve">
<style type="text/css">
	.st0{fill:#11293C;}
</style>
<g>
	<path class="st0" d="M20.1,14.2c0.1,1.7,2.1,2.6,3.4,1.7c1.2-0.8,2.9,0,2.9,1.5v6.1H31c-0.8-3.3,1.8-6.6,5.3-6.3
		c3.1,0.2,5.4,3.2,4.6,6.3h4.6c3.9-5.9,0-14.4-7.6-14.8c1-4.5-2.5-8.7-7-8.7c-1.7,0-3.2,0.5-4.4,1.5v9.2c0,1.5-1.7,2.4-2.9,1.5
		C22.1,11.2,20,12.3,20.1,14.2z"/>
	<path class="st0" d="M10.6,23.5c1.5,0,2.4,1.7,1.5,2.9c-1,1.5,0.1,3.6,2,3.4c1.7-0.1,2.6-2.1,1.7-3.4c-0.8-1.2,0-2.9,1.5-2.9h6.2
		V19c-3.2,0.8-6.1-1.5-6.3-4.6c-0.2-3.5,3-6.2,6.3-5.3V1.5c-5.3-4-12.8,0.6-11.6,7.1C4.3,9,0.4,17.5,4.3,23.5H10.6z"/>
	<path class="st0" d="M45.6,26.4h-6.2c-1.5,0-2.4-1.7-1.5-2.9c1-1.4,0-3.3-1.7-3.4c-1.9-0.1-3,2-2,3.4c0.8,1.2,0,2.9-1.5,2.9h-6.2
		v4.5c3.3-0.8,6.6,1.8,6.3,5.3c-0.2,3.1-3.2,5.4-6.3,4.6v7.6c5.3,4,12.8-0.6,11.6-7.1C45.5,41,49.7,32.6,45.6,26.4L45.6,26.4z"/>
	<path class="st0" d="M29.9,36.1c0.1-1.9-2-3-3.4-2c-1.2,0.8-2.9,0-2.9-1.5v-6.1H19c0.8,3.2-1.7,6.4-5,6.4s-5.8-3.2-5-6.4H4.3
		C0.4,32.4,4.2,41,11.9,41.4c-0.9,4.5,2.6,8.7,7.2,8.7c1.7,0,3.2-0.5,4.4-1.5v-9.3c0-1.5,1.7-2.4,2.9-1.5
		C27.8,38.7,29.8,37.8,29.9,36.1L29.9,36.1z"/>
</g>
</svg>
