<?xml version="1.0" encoding="utf-8"?>
<!-- Generator: Adobe Illustrator 24.0.1, SVG Export Plug-In . SVG Version: 6.00 Build 0)  -->
<svg version="1.1" id="Layer_1" xmlns="http://www.w3.org/2000/svg" xmlns:xlink="http://www.w3.org/1999/xlink" x="0px" y="0px"
	 viewBox="0 0 50 50" style="enable-background:new 0 0 50 50;" xml:space="preserve">
<style type="text/css">
	.st0{fill:#118DD8;}
</style>
<g>
	<path class="st0" d="M33,11.8c3.3,0,5.9-2.7,5.9-5.9C38.6-2,27.3-2,27,5.9C27.1,9.1,29.7,11.8,33,11.8z"/>
	<path class="st0" d="M46.9,19.5c-0.5-1.9-2.4-3.1-4.3-2.7l-3.4,0.7c-0.3,0.1-0.5,0-0.7-0.2c-0.6-0.4-4.3-3.8-4.9-3.9
		c-0.6-0.2-7.3-2.9-7.8-2.7h-9.1c-1.6,0-3.2,0.8-4.1,2.1l-3.7,5c-1.2,1.6-0.9,3.8,0.6,5c0.7,0.6,1.6,0.8,2.5,0.7
		c1-0.1,1.8-0.6,2.4-1.4l3.1-4.1l2.3,0.2l-3.5,9c-0.9,2.3,0.2,4.9,2.5,5.9c1.2,0.5,8.7,3.7,8.7,3.7c0.3,0.1,0.5,0.4,0.5,0.8V46
		c-0.1,2.1,1.6,3.9,3.8,4c1,0,1.9-0.3,2.7-1s1.2-1.7,1.2-2.8L36,35.7c0-1.6-0.8-3.1-2.1-4l-3.6-2.3c-0.7-0.5-1-1.3-0.8-2.1l2.1-5.2
		c0-0.1,0.2-0.2,0.3-0.2s0.1,0,0.2,0.1l3.7,2.6c1.1,0.8,2.5,1,3.8,0.7l4.7-1.2C46.2,23.4,47.3,21.5,46.9,19.5L46.9,19.5z"/>
	<path class="st0" d="M18,35.2c-1.1-0.5-2.1-1.2-2.8-2.2L14,35.3H7.1c-2.3,0-4.1,1.9-4.1,4.1c0,1.1,0.4,2.1,1.2,2.8
		C5,43,6,43.5,7.1,43.5h8.5c1.5,0,2.8-0.7,3.7-1.9l3.3-4.4C21.5,36.7,19.1,35.7,18,35.2L18,35.2z"/>
</g>
</svg>
