<?xml version="1.0" encoding="utf-8"?>
<!-- Generator: Adobe Illustrator 24.0.1, SVG Export Plug-In . SVG Version: 6.00 Build 0)  -->
<svg version="1.1" id="MASTER" xmlns="http://www.w3.org/2000/svg" xmlns:xlink="http://www.w3.org/1999/xlink" x="0px" y="0px"
	 viewBox="0 0 50 60" style="enable-background:new 0 0 50 60;" xml:space="preserve">
<style type="text/css">
	.st0{fill:#FFFFFF;}
</style>
<path class="st0" d="M44.9,24.4l-0.3-1.3c-1.5-6.4-6-11.7-12.1-14.1V7.5C32.5,3.4,29.1,0,25,0s-7.5,3.4-7.5,7.5v1.4
	C11.4,11.3,6.9,16.6,5.4,23l-0.3,1.3c-1.1,4.5-2.6,9-4.3,13.3c-2.1,5,0.3,10.8,5.4,12.8c0.7,0.3,1.5,0.5,2.2,0.6
	c2.3,0.4,4.6,0.6,6.9,0.9c1.1,5.4,6.4,8.9,11.8,7.8c3.9-0.8,7-3.9,7.8-7.8c2.3-0.2,4.7-0.5,7-0.9c5.4-0.9,9-5.9,8.1-11.3
	c-0.1-0.7-0.3-1.5-0.6-2.1C47.5,33.4,46,28.9,44.9,24.4L44.9,24.4z M22.5,7.5C22.5,6.1,23.6,5,25,5s2.5,1.1,2.5,2.5v0.2
	c-1.7-0.2-3.3-0.2-5,0V7.5z M25,55c-1.8,0-3.5-1-4.4-2.6c1.5,0.1,2.9,0.1,4.4,0.1s2.9,0,4.4-0.1C28.5,54,26.8,55,25,55z M41,46.2
	c-10.5,1.7-21.3,1.7-31.8,0C6.8,45.9,5,43.8,5,41.4l0,0c0-0.6,0.1-1.2,0.4-1.8c1.9-4.6,3.4-9.2,4.6-14l0.3-1.4
	c1.9-8.1,10-13.2,18.2-11.3c5.6,1.3,10,5.7,11.3,11.3l0.3,1.4c1.2,4.8,2.7,9.5,4.6,14c1,2.5-0.2,5.3-2.6,6.3
	C41.7,46.1,41.3,46.2,41,46.2L41,46.2z"/>
<path class="st0" d="M36.5,35.2c-7.4,3.1-15.7,3.1-23.1,0c-1.3-0.5-2.7,0.1-3.3,1.4c-0.5,1.3,0.1,2.7,1.3,3.3
	c8.6,3.6,18.3,3.6,26.9,0c1.3-0.5,1.9-2,1.4-3.3C39.3,35.3,37.8,34.7,36.5,35.2C36.6,35.2,36.5,35.2,36.5,35.2z"/>
</svg>
