<?xml version="1.0" encoding="utf-8"?>
<!-- Generator: Adobe Illustrator 24.0.1, SVG Export Plug-In . SVG Version: 6.00 Build 0)  -->
<svg version="1.1" id="레이어_1" xmlns="http://www.w3.org/2000/svg" xmlns:xlink="http://www.w3.org/1999/xlink" x="0px"
	 y="0px" viewBox="0 0 49.9 50" style="enable-background:new 0 0 49.9 50;" xml:space="preserve">
<style type="text/css">
	.st0{fill:#FFFFFF;}
</style>
<g id="Layer_114">
	<path class="st0" d="M49.9,25c0,13.8-11.1,25-24.9,25S0,38.9,0,25.1s11.1-25,24.9-25C30,0.1,35,1.7,39.2,4.6l-0.3-0.9
		c-0.5-1.5,0.3-3.1,1.8-3.6c1.5-0.5,3.1,0.3,3.6,1.8l2.8,8.3c0.3,0.8,0.1,1.8-0.4,2.5c-0.5,0.8-1.4,1.2-2.4,1.2H36
		c-1.5,0-2.8-1.2-2.8-2.8c0-1.2,0.8-2.3,2-2.6c-9.1-5.7-21.1-2.9-26.7,6.2s-2.9,21.1,6.2,26.7c9.1,5.7,21.1,2.9,26.7-6.2
		c1.9-3.1,2.9-6.6,2.9-10.3c0-1.5,1.2-2.8,2.8-2.8C48.6,22.2,49.9,23.5,49.9,25z"/>
</g>
</svg>
