<?xml version="1.0" encoding="utf-8"?>
<!-- Generator: Adobe Illustrator 24.0.1, SVG Export Plug-In . SVG Version: 6.00 Build 0)  -->
<svg version="1.1" id="레이어_1" xmlns="http://www.w3.org/2000/svg" xmlns:xlink="http://www.w3.org/1999/xlink" x="0px"
	 y="0px" viewBox="0 0 50 50" style="enable-background:new 0 0 50 50;" xml:space="preserve">
<style type="text/css">
	.st0{fill-rule:evenodd;clip-rule:evenodd;fill:#FB9B50;}
</style>
<path class="st0" d="M50,25c0,13.8-11.2,25-25,25C11.2,50,0,38.8,0,25C0,11.2,11.2,0,25,0C38.8,0,50,11.2,50,25z M26.8,36.8
	c-1,1-2.6,1-3.5,0l-10-10c-1-1-1-2.6,0-3.5s2.6-1,3.5,0l5.7,5.7V15c0-1.4,1.1-2.5,2.5-2.5s2.5,1.1,2.5,2.5v14l5.7-5.7
	c1-1,2.6-1,3.5,0c1,1,1,2.6,0,3.5L26.8,36.8z"/>
</svg>
