<?xml version="1.0" encoding="utf-8"?>
<!-- Generator: Adobe Illustrator 24.0.1, SVG Export Plug-In . SVG Version: 6.00 Build 0)  -->
<svg version="1.1" id="레이어_1" xmlns="http://www.w3.org/2000/svg" xmlns:xlink="http://www.w3.org/1999/xlink" x="0px"
	 y="0px" viewBox="0 0 50 50" style="enable-background:new 0 0 50 50;" xml:space="preserve">
<style type="text/css">
	.st0{fill:#333333;}
</style>
<path class="st0" d="M50,19.2L50,19.2c0-0.1,0-0.2,0-0.2c-0.1-2.3-2-4.2-4.4-4.2h-9.3c-0.6,0-1.1-0.5-1.1-1.1V4.4
	c0-0.6-0.1-1.2-0.3-1.7s-0.5-0.9-0.8-1.3L34,1.3l-0.1-0.1c-0.4-0.3-0.8-0.6-1.3-0.8C32,0.1,31.4,0,30.8,0H19.2
	c-1.2,0-2.3,0.5-3.1,1.3L16,1.4c-0.3,0.4-0.6,0.8-0.8,1.3s-0.3,1.1-0.3,1.7v6.8v2.5c0,0.2-0.1,0.4-0.2,0.5c-0.2,0.3-0.5,0.6-0.9,0.6
	H4.4c-1.2,0-2.3,0.5-3.1,1.3l-0.1,0.1c-0.3,0.4-0.6,0.8-0.8,1.3C0.1,18,0,18.6,0,19.2v11.6c0,0.6,0.1,1.2,0.3,1.7
	c0.7,1.6,2.2,2.7,4.1,2.7h6.8h2.5c0.4,0,0.7,0.2,0.9,0.5c0.1,0.2,0.2,0.4,0.2,0.6v9.3c0,1.2,0.5,2.3,1.3,3.1
	c0.8,0.8,1.9,1.3,3.1,1.3h11.6l0,0c0.1,0,0.2,0,0.2,0c2.3-0.1,4.2-2,4.2-4.4v-9.3c0-0.6,0.5-1.1,1.1-1.1h9.3c0.6,0,1.2-0.1,1.7-0.3
	c0.4-0.2,0.7-0.4,1-0.6c0.6-0.5,1.1-1.1,1.4-1.8c0.2-0.5,0.3-1.1,0.3-1.7V19.2z"/>
</svg>
