<?xml version="1.0" encoding="utf-8"?>
<!-- Generator: Adobe Illustrator 24.0.1, SVG Export Plug-In . SVG Version: 6.00 Build 0)  -->
<svg version="1.1" id="레이어_1" xmlns="http://www.w3.org/2000/svg" xmlns:xlink="http://www.w3.org/1999/xlink" x="0px"
	 y="0px" viewBox="0 0 40 40" style="enable-background:new 0 0 40 40;" xml:space="preserve">
<path d="M37.2,29.3c-0.9,2.1-1.4,3-2.6,4.9c-1.7,2.6-4.1,5.8-7,5.8c-2.6,0-3.3-1.7-6.9-1.7c-3.6,0-4.3,1.7-6.9,1.7
	c-2.9,0-5.2-2.9-6.9-5.5c-4.7-7.2-5.2-15.6-2.3-20.1c2.1-3.2,5.3-5,8.4-5c3.1,0,5.1,1.7,7.7,1.7c2.5,0,4-1.7,7.6-1.7
	c2.7,0,5.6,1.5,7.7,4.1C29.3,17.1,30.4,26.8,37.2,29.3z M25.6,6.5c1.3-1.7,2.3-4.1,1.9-6.5c-2.1,0.1-4.7,1.5-6.1,3.3
	c-1.3,1.6-2.4,4-2,6.3C21.8,9.7,24.2,8.3,25.6,6.5z"/>
</svg>
