<?xml version="1.0" encoding="utf-8"?>
<!-- Generator: Adobe Illustrator 24.0.1, SVG Export Plug-In . SVG Version: 6.00 Build 0)  -->
<svg version="1.1" id="레이어_1" xmlns="http://www.w3.org/2000/svg" xmlns:xlink="http://www.w3.org/1999/xlink" x="0px"
	 y="0px" viewBox="0 0 40 40" style="enable-background:new 0 0 40 40;" xml:space="preserve">
<style type="text/css">
	.st0{fill:url(#SVGID_1_);}
</style>
<linearGradient id="SVGID_1_" gradientUnits="userSpaceOnUse" x1="25.4966" y1="35.1651" x2="9.3166" y2="3.961" gradientTransform="matrix(1 0 0 -1 0 42)">
	<stop  offset="4.354677e-08" style="stop-color:#2AA239"/>
	<stop  offset="1" style="stop-color:#027653"/>
</linearGradient>
<path class="st0" d="M33.4,6.1v0.8h1.8v2.9h-1.8v5.7c0,0.6-0.4,1.1-0.9,1.4C32.4,17,32.2,17,32,17c-0.4,0-0.8-0.2-1.1-0.5l-3.7-3.7
	l-4.8,4.8l-2-2l5.8-5.8c0.3-0.3,0.6-0.5,1.1-0.5c0.4,0,0.8,0.2,1.1,0.5l2.3,2.3V2.9h-4.5V0h6h1.4v3.2h1.8V6L33.4,6.1L33.4,6.1z
	 M26.3,15.8c-0.7,0.5-0.9,1.4-0.5,2.1c1.7,2.6,1.5,4.7,1.5,4.7c0,2.6-2.1,4.6-4.8,5.3c-0.7,0.2-1.7,0.5-1.7,1.4s0.7,1.3,1.5,1.3
	c4.2,0,7.9-3.7,7.9-7.8c0.1-0.7,0.1-3.2-2-6.5C27.9,15.6,27,15.4,26.3,15.8z M15.1,21.2c0,1.3,1.1,2.3,2.3,2.3s2.3-1.1,2.3-2.3
	c0-1.3-1.1-2.3-2.3-2.3C16.2,18.9,15.1,20,15.1,21.2z M22,11.8c0.3-0.3,0.5-0.7,0.5-1.1S22.3,10,22,9.7l-3.5-3.5
	c-0.3-0.3-0.7-0.5-1.1-0.5s-0.8,0.2-1.1,0.5l-7.5,7.5C4.5,18,4.6,22,4.7,22.7c0.1,4.2,3.8,7.8,7.9,7.8c1.1,0,2.1-0.2,3.1-0.7
	c-0.2,2.9-0.3,7.2-0.6,10.1h4.5C19.2,34.9,19,26.8,19,26.8l0,0c0-0.3-0.1-0.5-0.2-0.8c-0.2-0.5-0.8-1-1.4-0.8
	c-0.4,0.1-0.6,0.2-0.8,0.5c-0.2,0.2-0.5,0.5-0.7,0.8c-0.2,0.3-0.5,0.6-0.8,0.8c-0.9,0.5-1.9,0.7-2.5,0.7c-2.6,0-4.9-2.6-4.9-5.3
	c0-0.1,0-0.2,0-0.2c0-0.2-0.3-3.2,3.3-6.8l6.4-6.4l2.4,2.4c0.3,0.3,0.7,0.5,1.1,0.5C21.4,12.2,21.8,12.1,22,11.8z"/>
</svg>
