<?xml version="1.0" encoding="utf-8"?>
<!-- Generator: Adobe Illustrator 24.0.1, SVG Export Plug-In . SVG Version: 6.00 Build 0)  -->
<svg version="1.1" id="레이어_1" xmlns="http://www.w3.org/2000/svg" xmlns:xlink="http://www.w3.org/1999/xlink" x="0px"
	 y="0px" viewBox="0 0 50 50" style="enable-background:new 0 0 50 50;" xml:space="preserve">
<style type="text/css">
	.st0{fill:none;}
	.st1{fill:url(#SVGID_1_);}
	.st2{fill:url(#SVGID_2_);}
</style>
<g>
	<path class="st0" d="M11.2,24.8L11.2,24.8C11.2,24.7,11.2,24.7,11.2,24.8z"/>
	<linearGradient id="SVGID_1_" gradientUnits="userSpaceOnUse" x1="17.608" y1="20.7085" x2="17.608" y2="58.6545">
		<stop  offset="0" style="stop-color:#BFFFC7"/>
		<stop  offset="0.3186" style="stop-color:#D0FFD6"/>
		<stop  offset="0.9443" style="stop-color:#FBFFFB"/>
		<stop  offset="1" style="stop-color:#FFFFFF"/>
	</linearGradient>
	<path class="st1" d="M11.2,24.7L11.2,24.7L11.2,24.7c0-0.8,0.3-1.7,1-2.3l2.6-2.6l0.3-0.3c1.3-1.3,3.4-1.3,4.7,0l4.9,4.9
		c0.2,0.2,0.5,0.2,0.6,0l7.3-7.3l0.6-0.6c1.2-1.2,1.9-2.9,1.9-4.7V4.4c0-2.4-2-4.4-4.4-4.4H19.2c-2.4,0-4.4,2-4.4,4.4v9.3
		c0,0.6-0.5,1.1-1.1,1.1H4.4c-2.4,0-4.4,2-4.4,4.4v11.6c0,2.4,2,4.4,4.4,4.4h6.8V24.7C11.2,24.7,11.2,24.7,11.2,24.7z"/>
	<linearGradient id="SVGID_2_" gradientUnits="userSpaceOnUse" x1="30.5986" y1="26.2229" x2="30.5986" y2="83.526">
		<stop  offset="4.354677e-08" style="stop-color:#18A5A7"/>
		<stop  offset="9.183685e-02" style="stop-color:#22A9AB"/>
		<stop  offset="0.2481" style="stop-color:#3DB3B5"/>
		<stop  offset="0.4497" style="stop-color:#69C4C6"/>
		<stop  offset="0.689" style="stop-color:#A6DCDD"/>
		<stop  offset="0.9572" style="stop-color:#F2FAFA"/>
		<stop  offset="1" style="stop-color:#FFFFFF"/>
	</linearGradient>
	<path class="st2" d="M46.7,18.2L35.2,29.7l-2.6,2.6l-2.9,2.9l-2.4,2.4c-1.3,1.3-3.4,1.3-4.7,0l-2.4-2.4l-5.5-5.5l-2.6-2.6
		c-0.6-0.6-1-1.5-1-2.3v10.5h2.5c0.6,0,1.1,0.5,1.1,1.1v9.3c0,2.4,2,4.4,4.4,4.4h11.6c2.4,0,4.4-2,4.4-4.4v-9.3
		c0-0.6,0.5-1.1,1.1-1.1h9.3c2.4,0,4.4-2,4.4-4.4V19.2C50,18,48.2,16.9,46.7,18.2z"/>
</g>
</svg>
