<?xml version="1.0" encoding="utf-8"?>
<!-- Generator: Adobe Illustrator 24.0.1, SVG Export Plug-In . SVG Version: 6.00 Build 0)  -->
<svg version="1.1" id="레이어_1" xmlns="http://www.w3.org/2000/svg" xmlns:xlink="http://www.w3.org/1999/xlink" x="0px"
	 y="0px" viewBox="0 0 50 50" style="enable-background:new 0 0 50 50;" xml:space="preserve">
<style type="text/css">
	.st0{fill:none;}
	.st1{fill:url(#SVGID_1_);stroke:#18A5A7;stroke-width:0.1;stroke-miterlimit:10;}
	.st2{fill:url(#SVGID_2_);stroke:#18A5A7;stroke-width:0.1;stroke-miterlimit:10;}
</style>
<g>
	<path class="st0" d="M11.5,24.8L11.5,24.8C11.5,24.7,11.5,24.8,11.5,24.8z"/>
	<linearGradient id="SVGID_1_" gradientUnits="userSpaceOnUse" x1="17.7559" y1="20.7944" x2="17.7559" y2="57.9814">
		<stop  offset="0" style="stop-color:#BFFFC7"/>
		<stop  offset="0.3186" style="stop-color:#D0FFD6"/>
		<stop  offset="0.9443" style="stop-color:#FBFFFB"/>
		<stop  offset="1" style="stop-color:#FFFFFF"/>
	</linearGradient>
	<path class="st1" d="M11.5,24.7L11.5,24.7L11.5,24.7c0-0.8,0.3-1.7,0.9-2.3l2.6-2.6l0.3-0.3c1.3-1.3,3.3-1.3,4.6,0l4.8,4.8
		c0.2,0.2,0.4,0.2,0.6,0l7.2-7.2l0.6-0.6c1.2-1.2,1.9-2.9,1.9-4.6V4.8c0-2.4-1.9-4.3-4.3-4.3H19.3c-2.4,0-4.3,1.9-4.3,4.3v9.1
		c0,0.6-0.5,1.1-1.1,1.1H4.8c-2.4,0-4.3,1.9-4.3,4.3v11.4c0,2.4,1.9,4.3,4.3,4.3h6.6V24.7C11.5,24.8,11.5,24.7,11.5,24.7z"/>
	<linearGradient id="SVGID_2_" gradientUnits="userSpaceOnUse" x1="30.4867" y1="26.1985" x2="30.4867" y2="82.3555">
		<stop  offset="4.354677e-08" style="stop-color:#18A5A7"/>
		<stop  offset="9.183685e-02" style="stop-color:#22A9AB"/>
		<stop  offset="0.2481" style="stop-color:#3DB3B5"/>
		<stop  offset="0.4497" style="stop-color:#69C4C6"/>
		<stop  offset="0.689" style="stop-color:#A6DCDD"/>
		<stop  offset="0.9572" style="stop-color:#F2FAFA"/>
		<stop  offset="1" style="stop-color:#FFFFFF"/>
	</linearGradient>
	<path class="st2" d="M46.3,18.4L35,29.6l-2.6,2.6L29.6,35l-2.3,2.3c-1.3,1.3-3.3,1.3-4.6,0L20.4,35L15,29.6L12.4,27
		c-0.6-0.6-0.9-1.5-0.9-2.3V35h2.4c0.6,0,1.1,0.5,1.1,1.1v9.1c0,2.4,1.9,4.3,4.3,4.3h11.4c2.4,0,4.3-1.9,4.3-4.3v-9.1
		c0-0.6,0.5-1.1,1.1-1.1h9.1c2.4,0,4.3-1.9,4.3-4.3V19.3C49.5,18.2,47.8,17,46.3,18.4z"/>
</g>
</svg>
