<?xml version="1.0" encoding="utf-8"?>
<!-- Generator: Adobe Illustrator 24.0.1, SVG Export Plug-In . SVG Version: 6.00 Build 0)  -->
<svg version="1.1" id="레이어_1" xmlns="http://www.w3.org/2000/svg" xmlns:xlink="http://www.w3.org/1999/xlink" x="0px"
	 y="0px" viewBox="0 0 218.4 53.1" style="enable-background:new 0 0 218.4 53.1;" xml:space="preserve">
<style type="text/css">
	.st0{fill:#00348B;}
	.st1{fill:url(#SVGID_1_);}
</style>
<g>
	<g>
		<path class="st0" d="M139.5,26.4v2.2c0,2.2,1.4,4,2.9,4.3l-0.9,0.8c-1.2-0.1-2.7-1.2-3-2.3c-0.3,1.1-1.7,2.2-3,2.3l-0.9-0.8
			c1.5-0.3,2.9-2,2.9-4.3v-2.2H139.5z M140.8,28.7h2.4v-2.5h1.9v11.7h-1.9v-8.1h-2.4V28.7z"/>
		<path class="st0" d="M156.9,37.8h-6.8c-0.8,0-1.3-0.5-1.3-1.3V35h6v-0.7h-6.1v-1.1h3v-0.9h-4.5v-1.1H158v1.1h-4.5v0.9h3.1v2.8h-6
			v0.7h6.2V37.8z M155.8,28.3c0,1.4-1.4,2.5-3.2,2.5s-3.2-1.1-3.2-2.5c0-1.4,1.4-2.5,3.2-2.5S155.8,26.9,155.8,28.3z M151.2,28.3
			c0,0.8,0.6,1.5,1.4,1.5c0.8,0,1.4-0.7,1.4-1.5c0-0.8-0.6-1.5-1.4-1.5C151.8,26.7,151.2,27.4,151.2,28.3z"/>
		<path class="st0" d="M164.9,37.8v-4.6c-0.3,0.2-0.8,0.4-1.5,0.4H161c-0.8,0-1.3-0.5-1.3-1.2v-5.8h4.2v1.1h-2.4v4.9h1.9
			c0.6,0,1.1-0.1,1.4-0.3v-6.1h1.8v3.2h1.1v-3.2h1.8v11.7h-1.8v-7.4h-1.1v7.4H164.9z"/>
		<path class="st0" d="M176.7,28.4c0.6,0.5,1,1.2,1,1.9c0,1.4-1.3,2.6-2.9,2.6c-1.6,0-2.9-1.2-2.9-2.6c0-0.7,0.4-1.4,0.9-1.9h-1.4
			v-1h2.4V26h1.9v1.4h2.4v1H176.7z M179.1,34.8h-6.5v-1.1h8.4v4.1h-1.9V34.8z M173.6,30.3c0,0.9,0.5,1.6,1.1,1.6
			c0.6,0,1.1-0.7,1.1-1.6c0-0.9-0.5-1.6-1.1-1.6C174.1,28.7,173.6,29.4,173.6,30.3z M181,28.6h1.9v1.1H181v3.3h-1.9v-6.8h1.9V28.6z"
			/>
		<path class="st0" d="M187.4,30.3V35h0.9v-4.7h1.8V35h3.9v1.1h-10.4V35h1.9v-4.7H187.4z M184.6,26.3h8.4v4.4c0,1.6-0.3,2.7-0.7,3.5
			h-1.7c0.5-0.8,0.5-1.9,0.5-3.6v-3.2h-6.5V26.3z"/>
		<path class="st0" d="M205.7,26.2v6.6h-1.9v-1.5h-1.6v0.9h-4.6c-0.8,0-1.3-0.5-1.3-1.3v-4.5h1.9v1.7h2.1v-1.7h1.9v1.2h1.6v-1.5
			H205.7z M200.2,31.2v-1.8h-2.1v1.8H200.2z M205.3,35.6c0,1.5-1.4,2.7-3.1,2.7c-1.7,0-3.1-1.2-3.1-2.7c0-1.5,1.4-2.7,3.1-2.7
			C203.9,32.9,205.3,34.1,205.3,35.6z M200.9,35.6c0,0.8,0.6,1.6,1.3,1.6c0.7,0,1.3-0.8,1.3-1.6c0-0.8-0.6-1.6-1.3-1.6
			C201.5,34,200.9,34.8,200.9,35.6z M203.8,28.8h-1.6v1.5h1.6V28.8z"/>
		<path class="st0" d="M215.3,31.3v1h-2.9v1.7h-1.9v-1.7h-2.6v-1H215.3z M214.3,28.5c0,1.3-1.3,2.4-2.9,2.4c-1.6,0-2.9-1.1-2.9-2.4
			c0-1.3,1.3-2.4,2.9-2.4C213,26.1,214.3,27.2,214.3,28.5z M211.9,36.8h6.5v1.1h-7.1c-0.8,0-1.3-0.5-1.3-1.3v-1.9h1.9V36.8z
			 M210.4,28.5c0,0.8,0.5,1.4,1,1.4c0.6,0,1-0.6,1-1.4c0-0.8-0.5-1.4-1-1.4C210.9,27.1,210.4,27.7,210.4,28.5z M218,26.2v8.9h-1.9
			V34h-2.6V33h2.6v-6.9H218z"/>
		<path class="st0" d="M141.2,41.8v7.1h-4.5c-0.8,0-1.3-0.5-1.3-1.3v-5.8H141.2z M139.3,47.8v-4.9h-2v4.9H139.3z M144.6,44.3h1.9
			v1.1h-1.9v7.7h-1.9V41.4h1.9V44.3z"/>
		<path class="st0" d="M153.8,44.6c0,1.7-1.5,3.1-3.3,3.1c-1.8,0-3.2-1.4-3.2-3.1s1.5-3.1,3.2-3.1C152.4,41.5,153.8,42.9,153.8,44.6
			z M149.2,44.6c0,1.1,0.6,2,1.3,2c0.7,0,1.4-0.9,1.4-2s-0.6-2-1.4-2C149.8,42.6,149.2,43.5,149.2,44.6z M149.5,48.9h1.9v3h6.3v1.1
			h-6.9c-0.8,0-1.3-0.5-1.3-1.3V48.9z M155.4,41.4h1.9l0,8.6h-1.9V41.4z"/>
		<path class="st0" d="M169.9,51.3h-10.4v-1.1h10.4V51.3z M168.7,41.6v1.1h-6.1v4.2h6.2v1.1h-6.8c-0.8,0-1.3-0.5-1.3-1.3v-5.1H168.7
			z"/>
		<path class="st0" d="M173.7,41.8v2.3h2.1v-2.3h1.9v7.1h-4.6c-0.8,0-1.3-0.5-1.3-1.3v-5.8H173.7z M175.8,47.8v-2.6h-2.1v2.6H175.8z
			 M181,44.3h1.9v1.1H181v7.7h-1.9V41.4h1.9V44.3z"/>
		<path class="st0" d="M193.5,41.4v11.7h-1.9v-4.8c-0.5,0.3-1.2,0.5-2,0.5h-4.1c-0.8,0-1.3-0.5-1.3-1.2v-5.7h5.8v1.1h-3.9v4.8h3.6
			c0.8,0,1.5-0.1,1.9-0.3v-6H193.5z"/>
		<path class="st0" d="M199.2,41.7v1.8c0,2.1,1,3.6,2.4,4l-0.8,0.7c-1-0.1-2.3-1.1-2.5-2.1c-0.2,1-1.5,2-2.5,2.1l-0.9-0.7
			c1.4-0.4,2.4-1.9,2.4-4v-1.8H199.2z M199.5,52h6.8v1.1h-7.3c-0.8,0-1.3-0.5-1.3-1.3v-2.6h1.9V52z M201.7,50v-5.2H200v-1.1h1.7
			v-2.3h1.8V50H201.7z M206,50h-1.8v-8.6h1.8V50z"/>
		<path class="st0" d="M214.3,41.8v1.1h-3.9v1.9h3v1.1h-3v2h4.6v1.1h-5.2c-0.8,0-1.3-0.5-1.3-1.2v-5.9H214.3z M213.9,44.6h2v-3.2
			h1.9v11.7h-1.9v-7.4h-2V44.6z"/>
	</g>
	<linearGradient id="SVGID_1_" gradientUnits="userSpaceOnUse" x1="119.3911" y1="9.0672" x2="97.9526" y2="50.4127">
		<stop  offset="4.354677e-08" style="stop-color:#2AA239"/>
		<stop  offset="1" style="stop-color:#027653"/>
	</linearGradient>
	<path class="st1" d="M129.9,8.1v1.1h2.4V13h-2.4v7.6c0,0.8-0.5,1.5-1.2,1.8c-0.2,0.1-0.5,0.1-0.7,0.1c-0.5,0-1-0.2-1.4-0.6
		l-4.9-4.9l-6.3,6.3l-2.7-2.7l7.7-7.7c0.4-0.4,0.8-0.6,1.4-0.6c0.5,0,1,0.2,1.4,0.6l3,3V3.8h-6V0h7.9l1.9,0v4.2h2.4v3.8H129.9z
		 M120.4,21c-0.9,0.6-1.2,1.9-0.6,2.8c2.3,3.4,2,6.2,2,6.2c0,3.4-2.8,6.1-6.3,7c-0.9,0.2-2.2,0.7-2.2,1.8c0,1.1,0.9,1.7,2,1.7
		c5.5,0,10.5-4.9,10.5-10.4c0.1-0.9,0.1-4.3-2.7-8.6C122.5,20.7,121.3,20.4,120.4,21z M105.6,28.1c0,1.7,1.4,3.1,3.1,3.1
		c1.7,0,3.1-1.4,3.1-3.1c0-1.7-1.4-3.1-3.1-3.1C107,25.1,105.6,26.5,105.6,28.1z M114.8,15.6c0.4-0.4,0.6-0.9,0.6-1.4
		c0-0.5-0.2-1-0.6-1.4l-4.7-4.7c-0.4-0.4-0.9-0.6-1.4-0.6c-0.5,0-1,0.2-1.4,0.6L97.4,18c-5.8,5.8-5.7,11.1-5.6,12.1
		c0.1,5.6,5,10.4,10.5,10.4c1.4,0,2.8-0.3,4.1-0.9c-0.2,3.9-0.4,9.6-0.8,13.4h6c-0.6-6.8-0.9-17.5-0.9-17.5h0c0-0.4-0.1-0.7-0.2-1
		c-0.3-0.7-1-1.3-1.8-1.1c-0.5,0.1-0.8,0.3-1.1,0.6c-0.3,0.3-0.6,0.7-0.9,1.1c-0.3,0.4-0.7,0.8-1.1,1.1c-1.2,0.7-2.5,0.9-3.3,0.9
		c-3.5,0-6.5-3.5-6.5-7c0-0.1,0-0.2,0-0.2c0-0.2-0.4-4.2,4.4-9l8.5-8.5l3.2,3.2c0.4,0.4,0.9,0.6,1.4,0.6
		C113.9,16.2,114.5,16,114.8,15.6z"/>
	<g>
		<g>
			<path class="st0" d="M62.7,26.4v1.5h-5.2v6.8h6.1v1.5h-6.9c-1,0-1.7-0.7-1.7-1.7v-8.1H62.7z M60.6,30.2h4.2v-4.4h2.5v16.3h-2.5
				V31.7h-4.2V30.2z"/>
			<path class="st0" d="M78.6,26.1v1.4c0,2.1,1.9,3.4,3.9,3.6l-1.2,1.1c-1.6-0.1-3.5-1-4-2.3c-0.4,1.3-2.4,2.2-3.9,2.3l-1.3-1.1
				c2-0.2,3.9-1.6,3.9-3.6v-1.4H78.6z M80.4,33.1c1.2,0,2.1-0.2,2.7-0.4v-6.9h2.5V36h-2.5V34c-0.7,0.4-1.7,0.6-2.8,0.6h-2.2V36h-2.5
				v-1.4h-3.3v-1.5H80.4z M85.7,36.8v5.3h-8.9c-1.1,0-1.8-0.7-1.8-1.8v-3.5H85.7z M83.2,40.6v-2.3h-5.6v2.3H83.2z"/>
			<path class="st0" d="M8,26.7v9.7H1.8c-1.1,0-1.8-0.7-1.8-1.7v-8H8z M5.4,34.9v-6.8H2.6v6.8H5.4z M12.6,30h2.6v1.5h-2.6v10.6H10
				v-16h2.6V30z"/>
			<path class="st0" d="M27.3,30.5c0,2.3-2,4.2-4.5,4.2c-2.4,0-4.4-1.9-4.4-4.2s2-4.2,4.4-4.2C25.2,26.3,27.3,28.2,27.3,30.5z
				 M20.9,30.5c0,1.5,0.8,2.7,1.8,2.7c1,0,1.9-1.2,1.9-2.7s-0.8-2.7-1.9-2.7C21.8,27.8,20.9,29,20.9,30.5z M21.3,36.5h2.6v4.2h8.6
				v1.5h-9.4c-1,0-1.8-0.7-1.8-1.7V36.5z M29.4,26.1h2.6l0,11.8h-2.6V26.1z"/>
			<path class="st0" d="M50.2,39.7H36v-1.5h14.2V39.7z M48.6,26.4v1.5h-8.3v5.7h8.5V35h-9.3c-1.1,0-1.8-0.7-1.8-1.7v-6.9H48.6z"/>
		</g>
		<g>
			<path class="st0" d="M1.1,51.3c0.1,0.6,0.6,0.9,1.3,0.9c0.8,0,1.1-0.3,1.1-0.8c0-0.5-0.3-0.8-1.4-1c-1.5-0.4-2-0.9-2-1.7
				c0-1,0.7-1.7,2.1-1.7c1.5,0,2.1,0.8,2.2,1.7H3.4c-0.1-0.4-0.3-0.8-1.1-0.8c-0.6,0-0.9,0.3-0.9,0.7c0,0.5,0.3,0.6,1.3,0.9
				c1.7,0.4,2,1,2,1.8c0,1-0.8,1.8-2.3,1.8c-1.5,0-2.2-0.8-2.4-1.8H1.1z"/>
			<path class="st0" d="M5.9,53v-5.9h1.4C8,48.4,9.6,51,9.8,51.6h0C9.8,51,9.8,50,9.8,49v-1.9h1V53H9.5c-0.7-1.2-2.3-4.1-2.6-4.7h0
				c0,0.6,0.1,1.7,0.1,2.8v2H5.9z"/>
			<path class="st0" d="M13.5,47.1v3.5c0,1.2,0.6,1.6,1.3,1.6c0.8,0,1.3-0.4,1.3-1.6v-3.5h1.1v3.5c0,2-1.1,2.5-2.4,2.5
				c-1.3,0-2.4-0.6-2.4-2.5v-3.5H13.5z"/>
			<path class="st0" d="M18.9,47.1H20v2.3h2.6v-2.3h1.1V53h-1.1v-2.6H20V53h-1.1V47.1z"/>
			<path class="st0" d="M27.6,47.1h1.1v2.3h2.6v-2.3h1.1V53h-1.1v-2.6h-2.6V53h-1.1V47.1z"/>
			<path class="st0" d="M34.7,51c0,0.7,0.3,1.2,1,1.2c0.6,0,0.7-0.3,0.9-0.5h1.1c-0.2,0.5-0.6,1.4-1.9,1.4c-1.4,0-2-1.1-2-2.2
				c0-1.3,0.7-2.3,2.1-2.3c1.5,0,2,1.1,2,2.1c0,0.1,0,0.2,0,0.4H34.7z M36.6,50.3c0-0.6-0.3-1.1-0.9-1.1s-0.9,0.4-1,1.1H36.6z"/>
			<path class="st0" d="M42.2,51.9c0,0.4,0,1,0.1,1.1h-1c0-0.1-0.1-0.3-0.1-0.5c-0.2,0.3-0.5,0.6-1.3,0.6c-1,0-1.5-0.7-1.5-1.4
				c0-1,0.8-1.4,2.1-1.4c0.2,0,0.5,0,0.7,0V50c0-0.3-0.1-0.7-0.8-0.7c-0.6,0-0.7,0.3-0.8,0.6h-1c0.1-0.7,0.5-1.4,1.8-1.4
				c1.1,0,1.8,0.5,1.8,1.5V51.9z M41.2,50.9c-0.1,0-0.4,0-0.6,0c-0.8,0-1.1,0.2-1.1,0.7c0,0.4,0.2,0.7,0.7,0.7c0.9,0,1-0.6,1-1.2
				V50.9z"/>
			<path class="st0" d="M43.6,53v-6.2h1.1V53H43.6z"/>
			<path class="st0" d="M45.6,48.6h0.7v-1.2h1.1v1.2h0.9v0.8h-0.9v2.3c0,0.4,0.1,0.5,0.5,0.5c0.1,0,0.2,0,0.3,0V53
				C47.9,53,47.6,53,47.4,53c-0.8,0-1.1-0.4-1.1-1.2v-2.4h-0.7V48.6z"/>
			<path class="st0" d="M50.2,46.8v2.4c0.2-0.3,0.6-0.7,1.3-0.7c0.8,0,1.5,0.4,1.5,1.7V53h-1.1v-2.6c0-0.6-0.2-1-0.8-1
				c-0.7,0-0.9,0.5-0.9,1.3V53h-1.1v-6.2H50.2z"/>
			<path class="st0" d="M56.7,46.8h1.1v1h-1.1V46.8z M56.7,48.6h1.1V53h-1.1V48.6z"/>
			<path class="st0" d="M59.1,49.7c0-0.4,0-0.8,0-1.1h1c0,0.1,0,0.5,0,0.6c0.2-0.3,0.5-0.7,1.3-0.7c0.9,0,1.5,0.6,1.5,1.7V53h-1.1
				v-2.7c0-0.5-0.2-0.9-0.8-0.9c-0.6,0-0.9,0.4-0.9,1.2V53h-1.1V49.7z"/>
			<path class="st0" d="M71.7,50.7c0-1,0-2.2,0-2.8h0c-0.3,1.1-1,3.3-1.6,5.1h-1c-0.5-1.6-1.2-4-1.5-5.1h0c0,0.7,0.1,1.9,0.1,2.9V53
				h-1v-5.9h1.6c0.5,1.6,1.1,3.7,1.3,4.5h0c0.1-0.7,0.9-2.9,1.5-4.5h1.6V53h-1.1V50.7z"/>
			<path class="st0" d="M74.2,46.8h1.1v1h-1.1V46.8z M74.2,48.6h1.1V53h-1.1V48.6z"/>
			<path class="st0" d="M76.6,49.7c0-0.4,0-0.8,0-1.1h1c0,0.1,0,0.5,0,0.6c0.2-0.3,0.5-0.7,1.3-0.7c0.9,0,1.5,0.6,1.5,1.7V53h-1.1
				v-2.7c0-0.5-0.2-0.9-0.8-0.9c-0.6,0-0.9,0.4-0.9,1.2V53h-1.1V49.7z"/>
			<path class="st0" d="M85.7,46.8v5c0,0.4,0,0.8,0,1.2h-1c0-0.1,0-0.4,0-0.5c-0.2,0.4-0.6,0.6-1.3,0.6c-1.1,0-1.8-0.9-1.8-2.2
				c0-1.3,0.7-2.3,2-2.3c0.7,0,1,0.3,1.1,0.5v-2.2H85.7z M82.6,50.8c0,0.9,0.4,1.4,1,1.4c0.9,0,1-0.7,1-1.5c0-0.8-0.1-1.4-1-1.4
				C83,49.4,82.6,49.9,82.6,50.8z"/>
		</g>
	</g>
</g>
</svg>
